# xmcd CD database file
#
# Track frame offsets:
#	150
#	19109
#	37079
#	57171
#	75554
#	87880
#	101466
#	119924
#	137182
#	158065
#	174858
#
# Disc length: 2643 seconds
#
# Revision: 1
# Processed by: cddbd v1.5.2PL0 Copyright (c) Steve Scherf et al.
# Submitted via: CDex 1.70beta2
#
DISCID=880a510b
DTITLE=Akim El Sikameya - The Rough Guide to Arabic Lounge - World Music Network - D2
DYEAR=2010
DGENRE=World
TTITLE0=Chouia L’Mon Coeur
TTITLE1=La Ruban Noir
TTITLE2=Le Sultan Tyran
TTITLE3=Ya Waadi
TTITLE4=Ma Chaude Comme Le Braise
TTITLE5=Cahwa Et Fleur D’Oranger
TTITLE6=Sa Majeste Lila
TTITLE7=Leila
TTITLE8=La Fille Du Wali
TTITLE9=Amertume
TTITLE10=Selma Et Samia
EXTD=YEAR: 2010
EXTT0=
EXTT1=
EXTT2=
EXTT3=
EXTT4=
EXTT5=
EXTT6=
EXTT7=
EXTT8=
EXTT9=
EXTT10=
PLAYORDER=
